<?xml version="1.0" standalone="no"?>
<!DOCTYPE svg PUBLIC "-//W3C//DTD SVG 20010904//EN"
 "http://www.w3.org/TR/2001/REC-SVG-20010904/DTD/svg10.dtd">
<svg version="1.0" xmlns="http://www.w3.org/2000/svg"
 width="700.000000pt" height="700.000000pt" viewBox="0 0 700.000000 700.000000"
 preserveAspectRatio="xMidYMid meet">
<metadata>
Created by potrace 1.14, written by Peter Selinger 2001-2017
</metadata>
<g transform="translate(0.000000,700.000000) scale(0.100000,-0.100000)"
fill="#000000" stroke="none">
<path d="M3378 6415 c-2 -1 -48 -5 -103 -9 -55 -3 -116 -8 -135 -11 -31 -5
-98 -15 -195 -31 -43 -7 -218 -52 -295 -75 -36 -11 -72 -22 -80 -24 -8 -2 -71
-26 -140 -54 -151 -60 -296 -131 -409 -200 -46 -28 -86 -51 -87 -51 -2 0 -43
-28 -91 -62 -591 -416 -992 -995 -1166 -1683 -19 -77 -39 -160 -42 -185 -4
-25 -9 -54 -11 -65 -42 -223 -50 -569 -19 -800 24 -177 61 -368 85 -429 5 -14
8 -26 5 -26 -6 0 69 -217 109 -315 77 -186 193 -400 301 -556 158 -226 403
-487 585 -623 30 -23 61 -47 69 -54 22 -21 179 -125 271 -179 227 -133 567
-270 790 -317 66 -14 178 -37 200 -40 179 -29 301 -40 465 -40 108 0 321 11
360 18 11 2 45 7 75 11 192 25 531 118 700 193 394 174 672 362 950 641 297
300 534 675 673 1066 69 195 119 392 143 570 3 22 7 51 10 65 23 141 23 547
-2 710 -20 136 -39 239 -60 325 -25 101 -80 287 -94 315 -5 8 -21 49 -36 90
-46 123 -174 366 -265 505 -334 509 -805 893 -1369 1118 -157 62 -397 131
-535 153 -16 3 -52 9 -80 14 -52 9 -101 15 -195 26 -56 6 -377 14 -382 9z
m172 -1055 c74 -18 138 -36 143 -40 4 -3 -21 -120 -57 -259 -43 -171 -60 -254
-52 -256 41 -15 238 -56 242 -52 4 3 33 113 65 244 33 131 61 243 63 249 3 8
57 -2 164 -28 l160 -40 -20 -76 c-11 -43 -21 -84 -23 -92 -2 -8 -22 -88 -44
-177 -23 -89 -41 -166 -41 -172 0 -5 26 -19 58 -31 31 -12 89 -37 129 -56 40
-19 75 -34 78 -34 3 0 18 -8 33 -18 15 -11 47 -32 71 -48 252 -165 333 -415
229 -711 -49 -138 -156 -243 -302 -295 -48 -17 -64 -27 -52 -31 41 -16 135
-86 188 -140 161 -163 184 -401 68 -681 -100 -241 -280 -380 -532 -414 -101
-13 -333 -6 -438 13 -8 1 -35 6 -60 10 -25 4 -52 9 -62 10 -11 3 -18 -7 -24
-33 -4 -20 -8 -41 -10 -47 -1 -5 -9 -37 -18 -70 -8 -33 -32 -129 -53 -214 -22
-85 -43 -156 -48 -158 -6 -1 -77 15 -160 36 -108 27 -150 42 -148 52 2 18 5
30 38 159 14 58 28 112 29 120 2 8 16 62 30 119 20 79 24 106 14 112 -13 9
-211 59 -230 59 -9 0 -35 -85 -78 -259 -56 -227 -66 -259 -82 -255 -98 22
-290 72 -295 77 -3 3 24 122 60 264 35 142 62 261 58 265 -3 4 -17 9 -31 12
-14 3 -106 26 -205 51 -99 26 -184 48 -190 49 -81 16 -205 52 -205 59 0 15
152 357 159 357 3 0 56 -14 116 -30 153 -41 198 -39 237 14 15 21 80 266 183
691 19 77 39 156 44 175 6 19 43 165 82 325 75 307 79 343 41 394 -34 46 -77
67 -213 100 -74 19 -135 34 -136 35 -1 1 4 26 12 56 8 30 17 69 19 85 3 17 16
68 29 115 17 62 27 84 37 82 94 -23 422 -105 445 -112 17 -5 63 -17 104 -26
86 -20 83 -22 107 81 8 39 17 77 19 85 2 8 22 87 44 174 23 88 41 161 41 163
0 3 8 2 18 0 9 -3 78 -20 152 -37z"/>
<path d="M3486 4421 c-3 -4 -7 -18 -9 -32 -3 -13 -12 -48 -20 -77 -9 -28 -14
-52 -12 -52 2 0 -2 -18 -10 -40 -8 -22 -12 -40 -10 -40 3 0 0 -11 -5 -25 -5
-14 -12 -37 -14 -51 -3 -14 -12 -48 -20 -77 -8 -29 -17 -63 -19 -77 -3 -14
-12 -54 -22 -89 -9 -35 -13 -67 -8 -71 6 -5 155 -46 203 -55 3 -1 25 -5 50 -9
25 -5 54 -10 65 -12 11 -3 63 -6 115 -8 258 -10 389 91 392 300 2 171 -158
292 -499 379 -179 46 -172 44 -177 36z"/>
<path d="M3158 3113 c-48 -191 -85 -349 -84 -351 5 -5 277 -71 316 -77 20 -3
47 -8 60 -10 29 -6 125 -15 194 -19 68 -3 169 12 230 35 176 65 245 272 144
431 -80 128 -255 218 -579 299 -86 21 -165 39 -175 39 -17 0 -31 -45 -106
-347z"/>
</g>
</svg>
